<?xml version="1.0" encoding="UTF-8" standalone="no"?><!DOCTYPE svg PUBLIC "-//W3C//DTD SVG 1.1//EN" "http://www.w3.org/Graphics/SVG/1.1/DTD/svg11.dtd"><svg width="100%" height="100%" viewBox="0 0 187 171" version="1.1" xmlns="http://www.w3.org/2000/svg" xmlns:xlink="http://www.w3.org/1999/xlink" xml:space="preserve" xmlns:serif="http://www.serif.com/" style="fill-rule:evenodd;clip-rule:evenodd;stroke-linejoin:round;stroke-miterlimit:1.41421;"><g><path d="M63.373,21.425c1.8,-4.725 4.275,-9.075 7.95,-12.6c14.7,-14.325 39,-10.725 48.975,7.275c7.5,13.65 15.45,27 23.175,40.5c12.9,22.425 25.95,44.85 38.7,67.35c10.725,18.825 -0.9,42.6 -22.2,45.825c-13.05,1.95 -25.275,-4.05 -32.025,-15.75c-11.325,-19.725 -22.725,-39.45 -34.05,-59.1c-0.225,-0.45 -0.525,-0.825 -0.825,-1.2c-1.2,-0.975 -1.725,-2.4 -2.475,-3.675c-5.025,-8.85 -10.2,-17.625 -15.225,-26.4c-3.225,-5.7 -6.6,-11.325 -9.825,-17.025c-2.925,-5.1 -4.275,-10.65 -4.125,-16.5c0.225,-3 0.6,-6 1.95,-8.7" style="fill:#3c8bd9;fill-rule:nonzero;"/><path d="M63.373,21.425c-0.675,2.7 -1.275,5.4 -1.425,8.25c-0.225,6.3 1.35,12.15 4.5,17.625c8.25,14.175 16.5,28.425 24.675,42.675c0.75,1.275 1.35,2.55 2.1,3.75c-4.5,7.8 -9,15.525 -13.575,23.325c-6.3,10.875 -12.6,21.825 -18.975,32.7c-0.3,0 -0.375,-0.15 -0.45,-0.375c-0.075,-0.6 0.15,-1.125 0.3,-1.725c3.075,-11.25 0.525,-21.225 -7.2,-29.775c-4.725,-5.175 -10.725,-8.1 -17.625,-9.075c-9,-1.275 -16.95,1.05 -24.075,6.675c-1.275,0.975 -2.1,2.4 -3.6,3.15c-0.3,0 -0.45,-0.15 -0.525,-0.375c3.6,-6.225 7.125,-12.45 10.725,-18.675c14.85,-25.8 29.7,-51.6 44.625,-77.325c0.15,-0.3 0.375,-0.525 0.525,-0.825" style="fill:#fabc04;fill-rule:nonzero;"/><path d="M7.798,118.475c1.425,-1.275 2.775,-2.625 4.275,-3.825c18.225,-14.4 45.6,-3.975 49.575,18.825c0.975,5.475 0.45,10.725 -1.2,15.975c-0.075,0.45 -0.15,0.825 -0.3,1.275c-0.675,1.2 -1.275,2.475 -2.025,3.675c-6.675,11.025 -16.5,16.5 -29.4,15.675c-14.775,-1.05 -26.4,-12.15 -28.425,-26.85c-0.975,-7.125 0.45,-13.8 4.125,-19.95c0.75,-1.35 1.65,-2.55 2.475,-3.9c0.375,-0.3 0.225,-0.9 0.9,-0.9" style="fill:#34a852;fill-rule:nonzero;"/><path d="M7.798,118.475c-0.3,0.3 -0.3,0.825 -0.825,0.9c-0.075,-0.525 0.225,-0.825 0.525,-1.2l0.3,0.3" style="fill:#fabc04;fill-rule:nonzero;"/><path d="M60.148,150.725c-0.3,-0.525 0,-0.9 0.3,-1.275c0.075,0.075 0.225,0.225 0.3,0.3l-0.6,0.975" style="fill:#e1c025;fill-rule:nonzero;"/></g></svg>