<?xml version="1.0" encoding="UTF-8" standalone="no"?><!DOCTYPE svg PUBLIC "-//W3C//DTD SVG 1.1//EN" "http://www.w3.org/Graphics/SVG/1.1/DTD/svg11.dtd"><svg width="100%" height="100%" viewBox="0 0 67 67" version="1.1" xmlns="http://www.w3.org/2000/svg" xmlns:xlink="http://www.w3.org/1999/xlink" xml:space="preserve" xmlns:serif="http://www.serif.com/" style="fill-rule:evenodd;clip-rule:evenodd;stroke-linejoin:round;stroke-miterlimit:1.41421;"><circle cx="34" cy="34" r="30" style="fill:#fff;"/><path d="M32.963,35.002c1.609,-1.608 1.734,-3.845 1.734,-5.102c0,-5.051 -2.99,-12.875 -8.796,-12.875c-1.81,0 -3.77,0.91 -4.9,2.31c-1.181,1.468 -1.533,3.353 -1.533,5.162c0,4.7 2.714,12.465 8.746,12.465c1.734,0 3.619,-0.855 4.749,-1.96Zm-28.963,-1.002c0,7.405 2.683,14.184 7.129,19.415c0.839,-1.41 2.14,-2.797 4.066,-3.937c4.348,-2.664 10.204,-3.017 13.37,-3.218c-0.98,-1.257 -2.111,-2.589 -2.111,-4.774c0,-1.182 0.352,-1.885 0.704,-2.715c-0.779,0.076 -1.533,0.151 -2.237,0.151c-7.414,0 -11.611,-5.529 -11.611,-10.983c0,-3.217 1.483,-6.791 4.473,-9.377c3.996,-3.284 8.746,-3.845 12.516,-3.845l14.401,0l-4.474,2.516l-4.322,0c1.607,1.329 4.951,4.127 4.951,9.449c0,5.178 -2.941,7.615 -5.856,9.926c-0.93,0.906 -1.96,1.886 -1.96,3.418c0,1.533 1.03,2.389 1.81,3.017l2.513,1.96c3.092,2.564 5.881,4.951 5.881,9.777c0,3.182 -1.484,6.376 -4.379,8.826c-1.557,0.255 -3.153,0.388 -4.781,0.393c2.938,-1.289 4.461,-3.646 4.461,-6.48c0,-3.568 -2.287,-5.453 -7.615,-9.248c-0.553,-0.051 -0.905,-0.051 -1.608,-0.051c-0.628,0 -4.398,0.127 -7.338,1.106c-1.533,0.553 -6.006,2.237 -6.006,7.213c0,0.541 0.058,1.065 0.17,1.569c-7.372,-5.463 -12.147,-14.228 -12.147,-24.108Zm57.73,-11.468c0.44,1.063 0.821,2.159 1.139,3.281c-0.317,-1.122 -0.698,-2.217 -1.139,-3.281Zm-27.73,41.468c-16.568,0 -30,-13.432 -30,-30c0,-16.569 13.432,-30 30,-30c12.507,0 23.227,7.653 27.73,18.532l-5.966,0l0,-7.814l-3.349,0l0,7.814l-7.814,0l0,3.281l7.814,0l0,7.882l3.349,0l0,-7.882l7.104,0c0.737,2.602 1.132,5.349 1.132,8.187c0,16.568 -13.432,30 -30,30Z" style="fill:#d6492f;"/></svg>