<?xml version="1.0" encoding="UTF-8" standalone="no"?><!DOCTYPE svg PUBLIC "-//W3C//DTD SVG 1.1//EN" "http://www.w3.org/Graphics/SVG/1.1/DTD/svg11.dtd"><svg width="100%" height="100%" viewBox="0 0 57 57" version="1.1" xmlns="http://www.w3.org/2000/svg" xmlns:xlink="http://www.w3.org/1999/xlink" xml:space="preserve" xmlns:serif="http://www.serif.com/" style="fill-rule:evenodd;clip-rule:evenodd;stroke-linejoin:round;stroke-miterlimit:1.41421;"><g><path d="M30.071,27.101l0,-0.077c-0.016,0.026 -0.033,0.052 -0.05,0.077l0.05,0Z" style="fill-rule:nonzero;"/><path d="M49.265,4.667l-42.12,0c-2.016,0 -3.651,1.596 -3.651,3.563l0,42.613c0,1.966 1.635,3.562 3.651,3.562l42.12,0c2.019,0 3.654,-1.597 3.654,-3.562l0,-42.613c0,-1.968 -1.636,-3.563 -3.654,-3.563Zm-30.79,41.637l-7.465,0l0,-22.459l7.465,0l0,22.459Zm-3.732,-25.527l-0.05,0c-2.504,0 -4.124,-1.725 -4.124,-3.88c0,-2.203 1.67,-3.88 4.223,-3.88c2.554,0 4.125,1.677 4.175,3.88c0,2.155 -1.622,3.88 -4.224,3.88Zm30.651,25.527l-7.465,0l0,-12.018c0,-3.018 -1.08,-5.078 -3.781,-5.078c-2.062,0 -3.29,1.389 -3.831,2.731c-0.197,0.479 -0.245,1.149 -0.245,1.821l0,12.543l-7.465,0c0,0 0.098,-20.354 0,-22.459l7.465,0l0,3.179c0.992,-1.53 2.766,-3.709 6.729,-3.709c4.911,0 8.594,3.211 8.594,10.11l0,12.88l-0.001,0Z" style="fill:#63636e;fill-rule:nonzero;"/></g></svg>