<?xml version="1.0" ?><svg height="60px" version="1.1" viewBox="0 0 60 60" width="60px" xmlns="http://www.w3.org/2000/svg" xmlns:xlink="http://www.w3.org/1999/xlink"><title/><desc/><defs/><g fill="none" fill-rule="evenodd" id="Page-1" stroke="none" stroke-width="1"><g id="Social_icons" transform="translate(-622.000000, -1755.000000)"><g id="MailChimp" transform="translate(622.000000, 1755.000000)"><circle cx="30" cy="30" fill="#FFFFFF" id="Oval" r="30"/><g id="mc_freddie_color_web" transform="translate(13.000000, 12.000000)"><path d="M33.4697385,25.7251906 C33.4420149,25.8169261 30.8226356,36.0030355 20.5308239,35.9999993 C11.6342662,35.9972523 7.41742215,28.1737114 7.41742215,28.1737114 C6.76906166,28.2102899 6.14342308,28.1061206 5.56637224,27.8916374 C2.95621038,26.9215111 1.70386144,23.9003845 2.60444945,21.3657669 L1.16989649,20.2566277 C-4.38711167,15.9738309 11.3548867,-3.62438316 16.9215409,0.810294068 C16.9496932,0.832703842 18.2503441,1.89189092 18.2503441,1.89189092 C20.2490865,0.663907647 22.2285366,7.233641e-05 23.8375767,4.68193259e-08 C24.980246,-0.000144532362 25.9359239,0.334556272 26.5794971,1.03959665 C28.0243392,2.62230495 27.5050935,5.64466044 25.5321455,8.70460653 C25.9565022,9.11217524 26.3081917,9.66613037 26.5592046,10.2160373 C27.1864151,10.7056547 27.5929801,11.4500206 27.7949765,12.4780509 C28.0199091,13.6211662 28.0664962,15.2494169 28.2076865,15.9491079 C28.7397222,16.1920732 28.5130747,16.0795906 29.0803365,16.3662911 C29.6718208,16.6653531 30.3920625,17.0295481 31.188044,17.8044202 C32.6028761,18.1630489 33.1431288,19.6848893 32.3152795,20.7235462 C32.2930578,20.7513776 32.1930957,20.8712338 32.0895609,20.9904393 C32.1142835,21.0563674 32.3856603,21.5011653 32.5815118,22.406737 C33.16778,22.5468342 33.6347939,22.9120412 33.8798761,23.4416348 C34.3037327,24.4781229 33.4697385,25.7251906 33.4697385,25.7251906 Z M29.389869,33.4178874 L29.389869,33.8442514 L29.5512803,33.8442514 L29.5512803,33.4178874 L29.7163357,33.4178874 L29.7163357,33.2833565 L29.2269572,33.2833565 L29.2269572,33.4178874 L29.389869,33.4178874 Z M29.7657094,33.2833565 L29.7657094,33.8442514 L29.9129017,33.8442514 L29.9129017,33.4392852 L30.0331564,33.8442514 L30.1586985,33.8442514 L30.2789531,33.4382008 L30.2789531,33.8442514 L30.4261454,33.8442514 L30.4261454,33.2833565 L30.1959967,33.2833565 L30.0966062,33.6061295 L29.9957152,33.2833565 L29.7657094,33.2833565 L29.7657094,33.2833565 Z" fill="#5B453E" id="Fill-1"/><path d="M9.95552384,21.7756521 L9.95552384,21.7756521 C10.1769117,21.2108428 10.2884878,20.7472642 10.2884878,20.7472642 C10.5419158,21.5249484 10.6715586,22.34287 10.6206754,23.1696465 C10.8307716,22.8890483 11.0563233,22.36058 11.0563233,22.36058 C11.4471572,24.6701138 9.76808165,26.7841994 7.55603801,26.7841994 C5.59205885,26.7841994 4,25.1018143 4,23.0264784 C4,20.9510716 5.59205885,19.2686865 7.55603801,19.2686865 C8.06508187,19.2686865 8.54921342,19.3817475 8.98711959,19.5854132 C8.98711959,19.5853424 9.74295762,19.9678797 9.95552384,21.7756521 Z M29.3060362,29.9197305 C32.0627631,27.7455724 32.5443541,25.1270335 32.5902971,25.036783 C33.2686459,24.2201366 33.0842384,23.4156039 32.188101,23.415533 C31.9029856,23.415533 31.6875965,23.4910487 31.6875965,23.4910487 C31.6875965,23.4910487 31.6909134,22.299374 31.141784,21.3712959 C30.7184159,21.8491843 29.5433736,22.7958934 28.0015628,23.5306484 C26.5556609,24.2197115 24.6264037,24.8231288 22.2355278,24.9030366 L22.2354572,24.9030366 C21.5660006,24.9322228 21.1518776,24.8228454 20.918704,25.6062677 C20.8442494,25.8830406 20.8764307,26.2941974 20.9324658,26.4130673 C21.1210372,27.061964 21.6137786,27.3479461 22.2623455,27.4994026 C22.7541696,27.6143763 23.2764812,27.6252149 23.2764812,27.6252149 C28.125348,27.7616532 32.0190078,23.9656076 32.0655155,23.9340836 C32.1105411,23.8970342 32.1478037,23.8531841 32.1478037,23.8531841 C32.1478037,23.8531841 32.1050364,23.9538481 32.0999552,23.9652534 C31.3995876,25.5461952 27.3445977,28.4131001 23.3083802,28.3309963 L23.2951125,28.3357426 C22.3590307,28.3321297 21.221745,28.0902811 20.6304834,27.3543217 C19.6949663,26.1899206 20.1804387,24.2537857 21.6714369,24.2084479 C21.6732718,24.2083771 22.0161159,24.200443 22.168695,24.1965468 C25.860304,24.0826356 29.1727236,22.7212277 31.5444036,19.8782668 C31.870522,19.471573 31.5062236,18.9129976 30.7994338,18.8959959 C30.7932234,18.8958542 30.7872247,18.8931623 30.7829903,18.8886285 C29.9450052,17.9879656 29.2084336,17.6697512 28.5529505,17.3354561 C27.1790332,16.6328625 27.3083231,17.2397509 26.988768,13.8319807 C26.902316,12.9132535 26.7289884,11.660302 25.9248784,11.1799342 C25.7141471,11.0539803 25.4837964,11 25.2446241,11 C25.0082748,11 24.8930995,11.0483839 24.8466624,11.0587266 C24.4062861,11.1566986 24.1558222,11.4073314 23.8421247,11.6977056 C22.3596659,13.0698813 21.1747433,12.6974032 19.4061811,12.6816767 C17.7451723,12.6670836 16.278663,13.8301388 15.9981349,15.616234 L15.9976409,15.6172258 C15.8612936,16.5521754 15.9495806,17.5021432 16.0955258,17.9291682 C16.0955258,17.9291682 15.6447048,17.6280971 15.4298802,17.3615961 C15.6898715,18.9932596 17.1728949,20.0596887 17.1728949,20.0596887 C16.9392979,20.1135273 16.6032993,20.0912126 16.6032993,20.0912126 C16.6047108,20.0924169 17.4497533,20.7632741 18.1832196,20.9973302 C17.9921782,21.1166961 17.0253971,22.0743146 16.5267981,23.3925808 C16.0602392,24.6262637 16.2502926,26.1073208 16.2502926,26.1073208 L16.6555234,25.5009991 C16.6555234,25.5009991 16.3908743,26.8522769 16.9030939,28.160838 C17.073034,27.7715708 17.4443191,27.0766988 17.4443191,27.0766988 C17.4443191,27.0766988 17.3854612,28.5278613 18.0814532,29.715994 C18.0993082,29.4417714 18.2037564,28.7436407 18.2037564,28.7436407 C18.2037564,28.7436407 18.6031296,29.982495 19.5257319,30.8487296 C21.2527972,32.3871673 25.8256526,32.6650027 29.3060362,29.9197305 L29.3060362,29.9197305 Z" fill="#F2D8B4" id="Fill-2"/><path d="M2.87565729,20 C2.86147984,19.9963379 1.52481028,19.044945 1.33466152,18.7316604 C0.210012454,16.8909925 2.1666425,13.1102265 3.55902443,10.9611799 C6.99994046,5.64999045 12.7273437,1.45844442 15.3286557,2.05702942 L18,3.3943967 C16.9627666,3.98614112 15.9595877,4.71296965 15.3586492,5.1963704 L14.7901977,5.65869664 C14.7901977,5.65869664 13.1302254,6.74261709 12.3046563,7.42591469 C8.99511321,10.1648401 5.73650916,14.404892 4.52807781,18.4976988 C4.52807781,18.4975606 3.53515788,18.9756409 2.87565729,20" fill="#207EAC" id="Fill-3"/><path d="M16,2.06187306 L16,2.06187306 C13.3483736,1.41245802 7.51049654,5.95986255 4.00305002,11.7221372 C4.00203334,11.7237864 4.00101667,11.7255106 4,11.7271598 L4.01416079,11.7287341 L6.80892009,14 C9.87752731,8.97177497 13.7342734,6.37906247 13.8430573,6.30289882 L13.3999334,3.22531774 L14.2300463,2.81503857 L15.896009,3.37194776 L15.7685618,2.79742198 L16,2.06187306" fill="#4FB1D3" id="Fill-4"/><path d="M20,2.80877022 L16.9652529,4.84174625 L16.7529229,5 L14.0618,2.90590528 L14,2.50988111 L14.9356762,2.08321965 C14.9837246,2.09803157 16.7394169,2.63952446 16.813495,2.66236601 L16.8448452,1.55201715 L16.9307922,1.29998051 L17.7527728,1 C17.7539188,1.00077958 19.9968895,2.80619762 20,2.80877022" fill="#FACD55" id="Fill-5"/><path d="M23.3373517,1 C21.6229643,1 19.6982552,1.95072863 18.2217382,2.88545942 C18.0146329,3.01395817 17.8091358,3.14842848 17.6078339,3.28547908 L16.8352793,2.60265893 L17.1158713,3.63087017 C17.0098015,3.70768928 16.9062488,3.78428722 16.8048637,3.86044283 L15.2085725,3.34652151 L16.2647957,4.27874573 C16.0236389,4.47145701 15.808213,4.65185658 15.6294956,4.8080751 L13.0965457,2.6028801 L13.2306537,3.59120733 L15.0715977,5.30142776 C15.0715977,5.30142776 13.4424437,6.45784287 12.6322018,7.1869609 C9.38410231,10.1091834 6.18599613,14.6331802 5,19 L5.06740362,18.9600423 C5.07656325,18.9546605 5.08579279,18.9502371 5.09495241,18.9449291 C5.12795501,18.9262035 5.16081777,18.9083626 5.19382038,18.8908166 C5.21500637,18.8796107 5.23605253,18.8682574 5.25723852,18.8575676 C5.29115009,18.8403902 5.32513159,18.8243924 5.35911308,18.8086157 C5.37911042,18.7992529 5.39924761,18.7894478 5.41931487,18.7806748 C5.45609319,18.7643821 5.4928016,18.7496375 5.52957992,18.7349667 C5.54657067,18.7281842 5.56356142,18.7207382 5.58055217,18.7143981 C5.63411148,18.6941243 5.68746103,18.6754724 5.74067073,18.6587374 C6.54699707,18.4051311 7.64398406,18.2420564 8.92814895,18.8170201 C9.57302823,17.1020077 10.3434852,15.3571376 11.5576594,13.6805347 C12.5421439,12.3210872 13.4884516,11.1074632 14.6243145,10.4399774 C16.7749376,8.30983216 22.5714395,6.05104072 24.4284653,8.0089696 C24.8675678,7.25161576 25.248636,6.53466198 25.5625802,5.6359079 C26.3374422,3.47457794 26.3515662,1 23.3373517,1" fill="#131B23" id="Fill-6"/><polyline fill="#131B23" id="Fill-7" points="17 3 16.3703101 2 16 2.49819751 16.2216285 2.88981975 17 3"/><path d="M30.99669,22.8990722 C30.99669,22.8990722 30.9999036,21.7180066 30.4678767,20.7981908 C30.0576944,21.2718247 28.9192485,22.2101056 27.4254572,22.9383194 C26.024656,23.6211778 24.1554168,24.2192933 21.8390043,24.2984897 L21.838936,24.2984897 C21.1903295,24.3274161 20.7891043,24.2190125 20.5631929,24.9954603 C20.5455521,25.06237 20.5341335,25.1372837 20.5276378,25.2139525 L20.5273643,25.221816 C20.5272959,25.221816 20.5271592,25.2217458 20.5270908,25.2217458 C20.5251079,25.2465298 20.5236037,25.271384 20.5226464,25.2962382 C20.5203901,25.3672201 20.5210738,25.4297066 20.5238088,25.4842594 C20.5238772,25.4855934 20.5239456,25.4868572 20.5240139,25.4881912 C20.5242191,25.4922633 20.5244242,25.4961951 20.5246293,25.5001268 C20.5266806,25.5342487 20.5295523,25.5669663 20.5330395,25.5977181 C20.5331762,25.5991925 20.5333813,25.6008776 20.5335181,25.602352 C20.5337232,25.6039668 20.5339283,25.6055816 20.5341335,25.6071964 C20.5494495,25.7305547 20.573244,25.7878457 20.5761158,25.7943752 C20.5762525,25.794656 20.5763893,25.7949369 20.5764577,25.7951475 L20.5793978,25.8054683 C20.7643525,26.4412161 21.2399699,26.7225459 21.8649185,26.8718115 C22.3414248,26.9857617 22.8475374,26.9964335 22.8475374,26.9964335 C26.6805786,27.1068732 29.8975598,24.6225772 30.9765193,23.6871749 C30.9949806,23.4250123 31.0058522,23.2380441 30.99669,22.8990722 Z M19.9852179,1.87467103 C20.9008976,1.44119704 21.8823542,1.09871468 22.8236745,1 C21.8887814,1.21596469 20.7495835,1.71368045 19.3998585,2.56174205 C19.3669701,2.58126032 16.2061248,4.77179943 14.2750061,6.738721 C13.2226446,7.81061077 8.99665161,13.0141943 9.00000199,13.0097711 C9.7723674,11.508971 10.2811467,10.7721916 11.5038307,9.19331837 C12.1953083,8.30032263 12.9332127,7.43190025 13.6885527,6.63003656 C13.9424295,6.36043175 14.1983576,6.09847978 14.4551062,5.84558485 C14.5530194,5.74911688 16.7613308,3.42721563 19.9852179,1.87467103 L19.9852179,1.87467103 Z" fill="#FFFFFE" id="Fill-8"/><path d="M28.7522333,30.0665396 C28.2843087,30.4308388 27.7964248,30.7404481 27.2983521,31 C26.1465108,30.5662842 25.439634,29.6422269 25.439634,29.6422269 C25.439634,29.6422269 26.4271958,29.4108841 27.7472247,28.7458256 C29.3526842,27.9375779 30.8530438,26.76994 32,25.300713 C31.9544986,25.3887975 31.4782693,27.944561 28.7522333,30.0665396 Z M25.6173826,17.7471579 C25.0602697,17.3545804 24.1374707,17.6670245 23.9340403,18.3166648 C24.2564582,18.3327744 24.5985561,18.5744191 24.5774105,18.8836136 C24.8050571,18.6653383 25.1287311,18.5420615 25.4436119,18.5478693 C25.2917545,18.3065703 25.3684509,17.8906235 25.6173826,17.7471579 Z M19.7717793,25.6749683 C19.9472947,25.0278171 20.4429249,24.5151433 21.2026307,24.492327 C21.2044452,24.4922579 21.5434724,24.4845142 21.6943528,24.4807115 C25.3448627,24.3695342 28.6204048,23.0407999 30.9656807,20.2660697 C31.2881684,19.8691364 30.9279257,19.3239668 30.2290048,19.3073732 C30.2262133,19.307304 30.2190252,19.3073732 30.2190252,19.3073732 C30.1008053,19.4312031 30.0796597,19.6573603 29.8841154,19.9953171 C29.1707484,21.223176 28.1840939,21.7846627 26.8683918,22.4361007 C22.8345396,24.4257451 20.7427316,23.4999593 19.9032588,24.7181386 C19.659282,25.07663 19.6546761,25.4770894 19.7717793,25.6749683 C19.7717793,25.6750375 19.7717793,25.6749683 19.7717793,25.6749683 Z M27.0705659,17.3304505 C26.6847811,17.0561718 26.671033,16.5777223 26.4606937,14.3648936 C26.3934186,13.6591116 26.2727562,12.7513022 25.8367942,12.1681055 C25.7466289,12.0900463 25.6198949,12.0003716 25.4372613,12.0003716 C25.1618801,11.9883412 24.8505585,12.2710551 24.6740661,12.4642325 C24.173132,13.1805239 23.6945299,13.6418266 22.8480086,14.0415946 C21.9912983,14.4257369 21.1770885,14.5650542 20.3318233,14.5386427 C19.7130881,14.5192835 19.1712586,14.4182698 18.6401066,14.4115632 C17.6559645,14.3963524 16.8029529,14.7123918 16.1812866,15.4900795 C15.7549553,16.0234953 15.5838366,16.5873328 15.5292628,17.2584065 C15.5313564,17.3393004 15.5349854,17.415562 15.5396611,17.4873985 C15.5470586,17.5940125 15.5568288,17.6957868 15.5687625,17.7913384 C15.6121702,18.1314385 15.6740717,18.307884 15.6740717,18.307884 C15.6740717,18.3105113 15.673653,18.3131387 15.6728853,18.3155586 C15.6780496,18.3322213 15.6832138,18.3482618 15.6885875,18.3635418 C15.6885875,18.3635418 15.2427855,18.0697655 15.0303526,17.8096605 C15.2447395,19.1372194 16.2994367,20.0814657 16.6443959,20.3587866 C16.6647738,20.374274 16.6848726,20.3896231 16.7045527,20.4050413 C16.7062973,20.406355 16.7077629,20.4079452 16.709019,20.4095354 C16.737911,20.4316602 16.7538924,20.4430684 16.7538924,20.4430684 C16.5229658,20.4956148 16.1906381,20.4738357 16.1906381,20.4738357 C16.1921037,20.4750111 17.0277382,21.1297678 17.7530388,21.3582066 C18.7152677,20.5525863 19.8062543,20.2433226 20.7018362,20.1473562 C21.2446427,19.8136169 21.8282749,19.4858238 22.4548961,19.1697153 C22.2651441,17.9990352 23.3130719,16.8201275 24.6317749,16.7069452 C25.6268039,16.6351086 26.1108494,17.0769829 26.4594375,17.5495555 C26.6486312,17.4897493 26.8619713,17.4243428 27.1003652,17.3547878 C27.0903158,17.3481504 27.0803362,17.3399918 27.0705659,17.3304505 Z M27.5465859,25.2151867 C27.5365365,25.2153941 27.5261382,25.2176066 27.5095288,25.221271 C27.1120197,25.312536 23.0128465,26.8857496 20.4215002,26.0793687 C20.4098457,26.2198614 20.4136142,26.5150205 20.4716773,26.6432753 C20.4717471,26.6435519 20.4718867,26.6438284 20.4719565,26.6440359 C20.8639524,26.7218876 21.3600711,26.7716685 21.9358871,26.7716685 C25.3458398,26.7716685 27.803264,25.2356522 27.5465859,25.2151867 Z M8.46942831,24.8997696 C8.47040533,24.8990782 8.47138236,24.8984559 8.47235938,24.8977645 C8.67997694,24.6766545 8.76707164,24.3677366 8.71773193,24.0722318 C8.64110535,23.6470894 8.15482664,23.5611483 7.83331602,23.2310043 C7.82822154,23.2258188 7.82312706,23.220495 7.81817215,23.2151021 C7.81272873,23.2092943 7.80749468,23.2034174 7.80233041,23.1976097 C7.80198147,23.1971948 7.80170232,23.19678 7.8012836,23.1963651 C7.65682365,23.0316043 7.60650692,22.8441655 7.618301,22.6769156 C7.64370361,22.2420244 8.03353612,22.1197156 8.23640813,22.1997798 C8.23640813,22.1997798 8.47703514,22.2561982 8.66336754,22.513745 C8.66336754,22.513745 8.66329775,22.5133302 8.66322796,22.5127079 C8.63489427,22.4277347 8.64075641,22.2904225 8.49490072,22.085837 C8.25587882,21.7503692 7.70686122,21.4091629 6.92866176,21.5725409 L6.92880133,21.5725409 C6.78496947,21.602686 6.86550415,21.5855392 6.72362633,21.6251565 C6.70143394,21.6313791 6.68126537,21.6374635 6.66374873,21.6447232 C6.61915457,21.6653961 6.57791021,21.6796389 6.53834075,21.7004501 C6.51782325,21.7117891 6.40092933,21.7643355 6.26016811,21.8693593 C5.38538286,22.988046 6.86703947,25.0168238 8.46942831,24.8997696 L8.46942831,24.8997696 Z" fill="#E2B986" id="Fill-9"/><path d="M21.3048737,17.2537277 C21.3783713,17.3630078 21.3980309,17.4455153 21.3683679,17.4798463 C21.3091808,17.5502038 21.0976493,17.455193 20.7852496,17.3314317 C19.9858065,17.0281742 19.3967834,16.9819757 18.3541312,17.3832815 C18.0904984,17.4855682 17.9035588,17.5645437 17.813875,17.5509808 C17.6676439,17.5288705 17.8092206,17.2566946 18.1287755,16.9926423 C18.7717756,16.4710366 19.6548588,16.3091297 20.4094947,16.5947272 C20.7398172,16.7183472 21.1107788,16.9650927 21.3048737,17.2537277 Z M21.1464856,18.0853017 C20.9273126,17.9150593 20.5237008,17.8009051 20.1046671,17.8733111 C20.01672,17.8869446 19.9355113,17.9146355 19.8555531,17.9364632 C19.8262375,17.9438098 19.7982417,17.9543351 19.7709406,17.9659907 C19.5976862,18.0402334 19.4477038,18.1201978 19.3021674,18.2620429 C19.1351652,18.4261396 19.0877182,18.5785101 19.1359988,18.6160199 C19.1834458,18.6545187 19.2990413,18.5975123 19.4776447,18.5240467 C20.0759766,18.2710849 20.4994563,18.2643741 20.9028597,18.2929833 C21.0974409,18.3062636 21.2276248,18.3182017 21.2578436,18.2643034 C21.2791704,18.2277119 21.2404764,18.1582022 21.1464856,18.0853017 Z M8.2610581,21.205894 L8.26119704,21.2060352 L8.26140545,21.2061765 C8.35963385,21.2855759 8.43493767,21.3703439 8.49106819,21.4512973 C8.67515962,21.7161973 8.6165977,21.8707576 8.69210992,21.9459185 C8.71934156,21.9731149 8.7582439,21.9816623 8.79707677,21.9655564 C8.9014184,21.9217596 8.95268613,21.7530007 8.96248118,21.6352438 L8.96255065,21.6345374 C8.98874026,21.3513417 8.84153659,21.0331085 8.64646914,20.8076257 L8.64598286,20.8069899 C8.52663604,20.6659925 8.36949838,20.5346021 8.18262821,20.4287834 C7.9954107,20.3227528 7.77818281,20.2423645 7.53935023,20.2047134 C7.12663809,20.139442 6.72066438,20.2230091 6.60729185,20.2574108 L6.60791707,20.2572695 C6.54949409,20.2745057 6.47724689,20.2899758 6.41514208,20.3147705 C5.74206213,20.5816484 5.29913121,21.071678 5.10204917,21.7205769 L5.10197971,21.7207889 L5.10191024,21.7211421 C5.02903782,21.9681701 5,22.2066507 5,22.4269769 C5,22.6169278 5.02153522,22.7934571 5.05515796,22.9507724 L5.05515796,22.9509137 L5.05522743,22.9511962 L5.05515796,22.9509137 C5.1121221,23.2156017 5.22855125,23.5136318 5.41035022,23.7093046 L5.41090596,23.7098697 C5.63813731,23.9595821 5.88725122,23.9118295 5.780895,23.6794945 C5.75553901,23.6151415 5.61826933,23.3520782 5.59979072,22.875894 C5.58777267,22.564301 5.62980109,22.2399928 5.74227054,21.9440819 C5.80451428,21.783941 5.88982155,21.6281798 6.00083216,21.4881714 C6.22959181,21.2035628 6.51066122,21.0761989 6.5435198,21.0576206 C6.58290842,21.0362873 6.62396428,21.0217355 6.66835463,21.0006141 C6.68572175,20.9932676 6.70579813,20.9869806 6.72795857,20.9806937 C6.86918796,20.9402169 6.78909082,20.9577357 6.93219586,20.926866 L6.93205692,20.926866 C7.47057645,20.8108045 7.93407004,20.9377445 8.2610581,21.205894 Z M8.14615726,22.263304 C8.07175654,22.2034013 8.03723071,22.1522579 8.01666805,22.073565 C7.98631033,21.9301658 8.00214914,21.8468812 8.12267692,21.7607711 C8.21548679,21.6961355 8.29016539,21.6649833 8.29044326,21.6243653 C8.29461137,21.547509 7.98415681,21.4683922 7.76706786,21.6856808 C7.58686666,21.8809297 7.52997199,22.2879573 7.81750196,22.6052016 C8.13761264,22.9564236 8.63542366,23.0392843 8.71295046,23.4809255 C8.72316233,23.5435126 8.73073439,23.6131636 8.72538532,23.6819669 C8.72649681,23.7609425 8.70051561,23.8746022 8.69926517,23.8817368 C8.60298188,24.3083317 8.20485812,24.7153594 7.54838113,24.6116599 C7.42743654,24.5937173 7.34907611,24.5786004 7.32573471,24.6125782 C7.27509219,24.6842071 7.55643947,25.0115529 8.07147867,24.9996853 C8.5754029,24.9888068 9.07529797,24.605161 9.23556172,24.0285267 C9.2373679,24.0210389 9.28467592,23.857578 9.28856615,23.7110706 C9.29759705,23.6025676 9.28988606,23.4909564 9.27001807,23.3741885 C9.13872268,22.6337401 8.41520863,22.4816522 8.14615726,22.263304 Z M25.7083407,16.9770309 C25.5091746,16.9454548 25.3132735,17.1449421 25.2706199,17.4226279 C25.2279663,17.7003137 25.3548852,17.9510151 25.5540512,17.9826618 C25.7531479,18.0142379 25.9491184,17.8147505 25.991772,17.5370647 C26.0343562,17.2593789 25.9074373,17.0086776 25.7083407,16.9770309 Z M23.520362,17.7870596 C23.4108797,17.9901496 23.5441896,18.2785727 23.8181038,18.4311551 C24.0919485,18.5838081 24.4027504,18.5429076 24.5122327,18.3397469 C24.6216455,18.136657 24.488405,17.8482339 24.2144214,17.6956515 C23.9405072,17.5430691 23.6297748,17.5839697 23.520362,17.7870596 Z M15.5039096,9.57155798 C19.2720875,7.08799715 23.0360278,6.8024703 24.3255709,7.81071491 C24.3256404,7.81050299 24.3257099,7.81043235 24.3257793,7.81029107 C24.3234174,7.80372155 24.3027158,7.74551419 24.2946575,7.72954955 C23.9672526,7.02209004 23.2032384,6.52859906 22.5226559,6.33059516 C22.6420722,6.45668755 22.8147708,6.68753904 22.8845866,6.8247219 C22.3710062,6.46601202 21.6884786,6.15010998 20.9762184,6 C20.9762184,6 21.0610394,6.06195127 21.0755583,6.07572607 C21.2175518,6.21022462 21.4065061,6.42270971 21.4838245,6.60517281 C20.8030335,6.32720444 19.9424582,6.17144326 19.2057451,6.31569012 C19.1953943,6.31773868 19.11363,6.3373766 19.11363,6.3373766 C19.11363,6.3373766 19.2095659,6.36160612 19.2308927,6.368105 C19.4752133,6.44171187 19.8238061,6.59309337 19.9774703,6.80056303 C18.7545475,6.58186161 17.4092212,6.82394486 16.6836925,7.23648241 C16.7769887,7.23252657 16.7760856,7.23210273 16.8550018,7.23422193 C17.1218996,7.24142721 17.6595855,7.27830129 17.885358,7.42438479 C17.1139802,7.58388989 15.997622,7.93475873 15.3967198,8.46032027 C15.5027981,8.44774635 16.1049508,8.36968916 16.3513554,8.40995395 C13.0436145,10.3346818 11.5382329,13.2446256 11.5382329,13.2446256 C12.5134312,11.9524083 13.7785909,10.7086499 15.5039096,9.57155798 L15.5039096,9.57155798 Z" fill="#916D53" id="Fill-10"/><path d="M24.0003171,15.8281419 C23.9962942,15.5531462 24.0284228,15.0987192 24.2197809,15.0141901 C24.2199983,15.0141165 24.2198896,15.0141165 24.2201614,15.0140429 C24.5471554,14.860581 24.9801031,15.9938161 25,17 C24.7416122,16.8249091 24.4379943,16.7506059 24.1257327,16.7872425 C24.0472324,16.4633244 24.0096132,16.1581661 24.0003171,15.8281419" fill="#5B453E" id="Fill-11"/></g></g></g></g></svg>