<?xml version="1.0" encoding="UTF-8" standalone="no"?><!DOCTYPE svg PUBLIC "-//W3C//DTD SVG 1.1//EN" "http://www.w3.org/Graphics/SVG/1.1/DTD/svg11.dtd"><svg width="100%" height="100%" viewBox="0 0 24 24" version="1.1" xmlns="http://www.w3.org/2000/svg" xmlns:xlink="http://www.w3.org/1999/xlink" xml:space="preserve" xmlns:serif="http://www.serif.com/" style="fill-rule:evenodd;clip-rule:evenodd;stroke-linejoin:round;stroke-miterlimit:1.41421;"><rect x="0" y="0" width="24" height="24" style="fill:none;"/><path d="M6.62,10.79c1.44,2.83 3.76,5.14 6.59,6.59l2.2,-2.2c0.27,-0.27 0.67,-0.36 1.02,-0.24c1.12,0.37 2.33,0.57 3.57,0.57c0.55,0 1,0.45 1,1l0,3.49c0,0.55 -0.45,1 -1,1c-9.39,0 -17,-7.61 -17,-17c0,-0.55 0.45,-1 1,-1l3.5,0c0.55,0 1,0.45 1,1c0,1.25 0.2,2.45 0.57,3.57c0.11,0.35 0.03,0.74 -0.25,1.02l-2.2,2.2Z" style="fill:#63636e;fill-rule:nonzero;"/></svg>