<?xml version="1.0" encoding="UTF-8" standalone="no"?><!DOCTYPE svg PUBLIC "-//W3C//DTD SVG 1.1//EN" "http://www.w3.org/Graphics/SVG/1.1/DTD/svg11.dtd"><svg width="100%" height="100%" viewBox="0 0 24 24" version="1.1" xmlns="http://www.w3.org/2000/svg" xmlns:xlink="http://www.w3.org/1999/xlink" xml:space="preserve" xmlns:serif="http://www.serif.com/" style="fill-rule:evenodd;clip-rule:evenodd;stroke-linejoin:round;stroke-miterlimit:1.41421;"><rect x="0" y="0" width="24" height="24" style="fill:none;"/><path d="M9.4,10.5l4.77,-8.26c-0.7,-0.15 -1.42,-0.24 -2.17,-0.24c-2.4,0 -4.6,0.85 -6.32,2.25l3.66,6.35l0.06,-0.1Zm12.14,-1.5c-0.92,-2.92 -3.15,-5.26 -6,-6.34l-3.66,6.34l9.66,0Zm0.26,1l-7.49,0l0.29,0.5l4.76,8.25c1.64,-1.78 2.64,-4.14 2.64,-6.75c0,-0.69 -0.07,-1.35 -0.2,-2Zm-13.26,2l-3.9,-6.75c-1.63,1.78 -2.64,4.14 -2.64,6.75c0,0.69 0.07,1.35 0.2,2l7.49,0l-1.15,-2Zm-6.08,3c0.92,2.92 3.15,5.26 6,6.34l3.66,-6.34l-9.66,0Zm11.27,0l-3.9,6.76c0.7,0.15 1.42,0.24 2.17,0.24c2.4,0 4.6,-0.85 6.32,-2.25l-3.66,-6.35l-0.93,1.6Z" style="fill:#fff;fill-rule:nonzero;"/></svg>