<?xml version="1.0" encoding="UTF-8" standalone="no"?><!DOCTYPE svg PUBLIC "-//W3C//DTD SVG 1.1//EN" "http://www.w3.org/Graphics/SVG/1.1/DTD/svg11.dtd"><svg width="100%" height="100%" viewBox="0 0 128 128" version="1.1" xmlns="http://www.w3.org/2000/svg" xmlns:xlink="http://www.w3.org/1999/xlink" xml:space="preserve" xmlns:serif="http://www.serif.com/" style="fill-rule:evenodd;clip-rule:evenodd;stroke-linejoin:round;stroke-miterlimit:1.41421;"><rect x="11.018" y="9.579" width="107.527" height="99.156" style="fill:#ebebeb;"/><g id="Trello_1_"><rect x="0" y="0" width="128" height="128" style="fill:none;"/><path id="Trello" d="M16,0c-8.836,0 -16,7.168 -16,16l0,96c0,8.836 7.168,16 16,16l96,0c8.836,0 16,-7.168 16,-16l0,-96c0,-8.836 -7.168,-16 -16,-16l-96,0Zm56,24l0,40c0,4.42 3.58,8 8,8l24,0c4.42,0 8,-3.58 8,-8l0,-40c0,-4.42 -3.58,-8 -8,-8l-24,0c-4.42,0 -8,3.58 -8,8Zm-56,0l0,72c0,4.42 3.58,8 8,8l24,0c4.42,0 8,-3.58 8,-8l0,-72c0,-4.42 -3.58,-8 -8,-8l-24,0c-4.42,0 -8,3.58 -8,8Z" style="fill:#007ac2;"/></g></svg>