<?xml version="1.0" encoding="UTF-8" standalone="no"?><!DOCTYPE svg PUBLIC "-//W3C//DTD SVG 1.1//EN" "http://www.w3.org/Graphics/SVG/1.1/DTD/svg11.dtd"><svg width="100%" height="100%" viewBox="0 0 256 256" version="1.1" xmlns="http://www.w3.org/2000/svg" xmlns:xlink="http://www.w3.org/1999/xlink" xml:space="preserve" xmlns:serif="http://www.serif.com/" style="fill-rule:evenodd;clip-rule:evenodd;stroke-linejoin:round;stroke-miterlimit:1.41421;"><ellipse cx="128.37" cy="126.28" rx="105.324" ry="104.069" style="fill:#fff;"/><path d="M128.001,0c-70.695,0 -128.001,57.307 -128.001,128c0,70.693 57.306,128 128.001,128c70.695,0 127.999,-57.307 127.999,-128c0,-70.693 -57.304,-128 -127.999,-128Zm-35.391,218.026c1.415,-9.112 2.765,-17.486 4.028,-25.215c-28.191,-14.13 -46.057,-42.577 -41.5,-75.453c6.218,-44.649 40.598,-67.547 83.832,-63.652c3.279,-4.641 6.877,-9.094 10.974,-13.403c7.293,-8.154 18.141,-8.411 13.262,1.252c-9.834,18.608 -13.72,32.657 -22.166,55.217c-8.417,23.995 -21.429,59.213 -38.75,121.047c-1.253,5.664 -10.128,4.76 -9.68,0.207Zm108.318,-81.996c-5.622,42.633 -45.469,66.827 -85.081,62.649c2.875,-9.721 4.237,-13.866 7.569,-21.702c2.515,-4.522 11.927,-6.369 19.237,-9.476c14.847,-5.336 26.249,-18.588 28.403,-35.311c1.516,-11.857 -1.948,-23.218 -8.737,-31.999c-4.747,-6.025 -9.222,-9.676 -7.694,-15.331c2.249,-7.636 3.974,-13.303 8.167,-22.898c26.026,13.979 42.251,43.014 38.136,74.068Zm-115.886,-14.85c-1.469,11.404 1.636,22.29 7.862,30.877c4.15,5.543 7.328,8.774 8.885,11.318c5.128,-27.777 8.831,-42.145 13.763,-58.266c2.212,-6.734 5.876,-16.179 8.527,-22.611c-3.162,1.059 -7.649,2.236 -11.313,3.67c-14.516,5.443 -25.611,18.559 -27.724,35.012Z" style="fill:#278cc0;fill-rule:nonzero;"/></svg>